<svg width="60" height="60" viewBox="0 0 60 60" fill="none" xmlns="http://www.w3.org/2000/svg">
<g clip-path="url(#clip0_994_42)">
<path d="M16.2876 60C15.6273 59.633 15.4512 59.0751 15.4512 58.3411C15.4659 48.3582 15.4659 38.3753 15.4659 28.3925C15.4659 27.0565 15.8181 26.7042 17.1827 26.7042C20.5576 26.7042 23.9325 26.7042 27.3221 26.7042C27.5275 26.7042 27.7476 26.7042 27.9531 26.7042C28.0264 25.9114 28.0118 25.1333 28.1878 24.414C28.6721 22.4174 30.3155 21.1108 32.3991 21.0962C35.8914 21.0668 39.3837 21.0521 42.876 21.0962C45.3559 21.1255 47.146 22.99 47.2194 25.471C47.2341 25.8527 47.2194 26.2491 47.2194 26.7042C47.4835 26.7042 47.6889 26.7042 47.8944 26.7042C51.3573 26.7042 54.8056 26.7042 58.2685 26.7042C59.6332 26.7042 59.9854 27.0418 59.9854 28.3925C59.9854 38.3753 59.9853 48.3582 60 58.3411C60 59.0751 59.8239 59.633 59.1636 60C44.8716 60 30.5796 60 16.2876 60ZM41.7755 43.1172C41.7168 43.2934 41.6581 43.4402 41.6141 43.587C41.0272 45.2606 39.4718 46.391 37.6963 46.4057C35.9061 46.4204 34.2627 45.3193 33.7051 43.6163C33.5583 43.1906 33.3676 43.1025 32.9714 43.1025C30.3008 43.1172 27.6302 43.1172 24.945 43.1025C22.3038 43.0878 20.0294 42.1483 18.1658 40.2691C18.0778 40.1811 17.9751 40.1223 17.8577 40.0196C17.8577 45.9065 17.8577 51.7494 17.8577 57.607C31.1225 57.607 44.3727 57.607 57.6229 57.607C57.6229 56.6675 57.6229 55.772 57.6229 54.8324C57.3735 54.8324 57.1534 54.8324 56.9479 54.8324C54.9817 54.8324 53.0008 54.8324 51.0345 54.8324C50.3008 54.8324 49.8606 54.5535 49.6845 54.025C49.4204 53.1882 49.9927 52.4982 50.9905 52.4982C53.0008 52.4835 55.011 52.4982 57.0213 52.4982C57.2267 52.4982 57.4322 52.4982 57.6229 52.4982C57.6229 51.3971 57.6229 50.3841 57.6229 49.3271C57.3735 49.3271 57.168 49.3271 56.9626 49.3271C53.5143 49.3271 50.0514 49.3271 46.6031 49.3271C46.427 49.3271 46.2509 49.3418 46.0749 49.3125C45.3999 49.239 44.9157 48.7399 44.9303 48.138C44.945 47.5361 45.3999 47.0663 46.0602 46.9929C46.2363 46.9782 46.4123 46.9782 46.5884 46.9782C50.0661 46.9782 53.5437 46.9782 57.0066 46.9782C57.2121 46.9782 57.4175 46.9782 57.6229 46.9782C57.6229 44.6293 57.6229 42.3391 57.6229 39.9755C55.4072 42.3391 52.7366 43.2053 49.6405 43.1172C47.014 43.0585 44.4168 43.1172 41.7755 43.1172ZM33.4116 40.7536C33.4116 40.1077 33.3969 39.5204 33.4116 38.9479C33.4263 37.979 33.8812 37.5239 34.8643 37.5092C36.7132 37.4945 38.5767 37.4945 40.4256 37.5092C41.4234 37.5092 41.8342 37.9496 41.8489 38.9479C41.8489 39.5498 41.8489 40.137 41.8489 40.7683C44.7249 40.7683 47.5275 40.7683 50.3155 40.7683C50.609 40.7683 50.9024 40.7683 51.1959 40.7536C54.4094 40.4894 57.168 38.023 57.5202 34.8373C57.7256 32.9728 57.6082 31.0643 57.6376 29.1705C57.6376 29.1412 57.5936 29.1118 57.5642 29.0825C44.3287 29.0825 31.1079 29.0825 17.8283 29.0825C17.8283 30.7267 17.799 32.3416 17.8283 33.9564C17.887 36.8045 19.7212 39.3443 22.3918 40.3132C23.0228 40.5481 23.7124 40.7389 24.3727 40.7389C27.3515 40.783 30.3448 40.7536 33.4116 40.7536ZM30.3449 26.6601C35.2311 26.6601 40.044 26.6601 44.8863 26.6601C44.8863 26.2197 44.901 25.8087 44.8863 25.3976C44.8423 24.2819 44.0206 23.4304 42.9054 23.4157C39.3984 23.401 35.8768 23.401 32.3698 23.4157C31.3867 23.4157 30.609 24.091 30.4476 25.0599C30.3448 25.5884 30.3742 26.117 30.3449 26.6601ZM35.7154 39.8874C35.7594 40.8564 35.73 41.7813 35.8621 42.6768C35.9942 43.5429 36.8012 44.0861 37.6963 44.0714C38.562 44.0568 39.3837 43.4255 39.4571 42.5887C39.5451 41.7079 39.4718 40.8123 39.4718 39.9021C38.2245 39.8874 37.036 39.8874 35.7154 39.8874Z" fill="#A10E2F"/>
<path d="M0 25.0599C0.146735 24.0763 0.264123 23.0927 0.425532 22.1238C0.895084 19.3932 1.79017 16.8094 3.06676 14.343C3.46295 13.5796 4.10858 13.3007 4.73955 13.609C5.37051 13.9173 5.56126 14.6073 5.16508 15.3707C4.03522 17.5728 3.22817 19.8776 2.75862 22.3146C2.14233 25.471 2.23037 29.7871 2.97872 32.1801C4.2113 32.1801 5.44387 32.2828 6.66178 32.1507C8.55466 31.9598 9.99266 30.4037 10.2274 28.5099C10.2715 28.0988 10.2861 27.6878 10.3888 27.2914C10.7263 25.882 11.8562 24.9425 13.3089 24.8397C15.011 24.7076 15.8327 23.8267 15.8327 22.1091C15.8327 20.6263 15.2751 19.7308 14.1012 19.4078C13.8225 19.3344 13.529 19.3198 13.2355 19.3198C11.7975 19.3051 10.3448 19.3198 8.90682 19.3198C8.68672 19.3198 8.48129 19.3198 8.26119 19.2757C7.6449 19.1436 7.24872 18.6445 7.29274 18.0719C7.33676 17.4847 7.79164 17.0002 8.40792 17.0002C10.2861 16.9855 12.1643 16.8828 14.0279 17.0589C16.0088 17.2351 17.4028 18.3949 17.9457 20.3327C18.6207 22.7257 18.0338 24.9572 16.2729 26.2491C15.4952 26.8216 14.6148 27.1005 13.661 27.1886C12.8833 27.262 12.6926 27.4676 12.6339 28.2456C12.3404 32.0626 9.62583 34.5877 5.79604 34.5877C5.09171 34.5877 4.38738 34.5877 3.53632 34.5877C4.10858 35.8796 4.59281 37.1128 5.19442 38.2725C6.9259 41.5757 9.30301 44.3357 12.3111 46.5525C12.5018 46.6846 12.6926 46.8314 12.854 46.9929C13.3382 47.4627 13.3969 48.138 13.0154 48.6224C12.6339 49.0775 11.9589 49.195 11.4307 48.7986C10.5356 48.138 9.6405 47.4627 8.81878 46.7139C4.32869 42.574 1.51137 37.4798 0.410858 31.4607C0.234776 30.5065 0.132062 29.5375 0 28.5833C0 27.4088 0 26.2344 0 25.0599Z" fill="#A10E2F"/>
<path d="M44.3874 14.6367C44.3287 15.1358 44.3287 15.5762 44.226 15.9873C43.8738 17.4113 42.7733 18.3949 41.1739 18.439C38.3125 18.4977 35.4365 18.5417 32.5752 18.3949C29.9926 18.2628 28.2758 16.2369 28.2465 13.6237C28.2318 12.1556 28.2465 10.6876 28.2465 9.23418C28.2465 9.10206 28.2318 8.96993 28.2318 8.77908C27.4982 8.77908 26.7938 8.77908 26.1042 8.77908C23.4776 8.7644 21.7608 7.04676 21.7168 4.40423C21.7168 3.91977 21.7168 3.43531 21.7168 2.74532C20.0587 3.33254 18.4886 3.78764 16.9919 4.44828C15.7153 5.00614 14.5268 5.76954 13.2942 6.44485C13.0888 6.5623 12.898 6.69442 12.6926 6.79719C12.1497 7.04676 11.5774 6.88527 11.2546 6.40081C10.9318 5.91634 10.9758 5.29976 11.4453 4.91806C11.9736 4.49232 12.5458 4.11062 13.1328 3.77296C17.7696 1.02767 22.788 -0.234866 28.1731 0.0293868C33.2062 0.278959 37.8136 1.83511 41.9662 4.66849C46.0455 7.45782 49.1416 11.128 51.2106 15.635C52.0763 17.5288 52.6926 19.4813 53.1181 21.5219C53.2942 22.3881 52.986 23.0194 52.267 23.1808C51.5921 23.3276 51.0198 22.9019 50.8437 22.0504C50.3301 19.5988 49.4938 17.2498 48.2905 15.0331C48.1291 14.7394 47.9677 14.6073 47.6302 14.6073C46.559 14.6514 45.4879 14.6367 44.3874 14.6367ZM24.0499 2.5251C24.0499 3.2151 24.0352 3.87573 24.0499 4.53636C24.0792 5.69613 24.7836 6.38613 25.9428 6.40081C26.7058 6.41549 27.4688 6.40081 28.2318 6.40081C29.7432 6.41549 30.5796 7.25229 30.5796 8.7644C30.5796 10.3206 30.5796 11.8914 30.5796 13.4475C30.5796 15.1211 31.548 16.0901 33.2355 16.1047C34.0572 16.1194 34.8789 16.1047 35.7006 16.1047C37.3734 16.1047 39.0609 16.1047 40.7337 16.1047C41.6874 16.1047 41.9809 15.7965 41.9956 14.8422C41.9956 14.5046 41.9956 14.1816 41.9956 13.8439C42.0103 12.6695 42.4064 12.2731 43.595 12.2731C44.5341 12.2731 45.4879 12.2731 46.4857 12.2731C41.5407 5.28508 32.4431 1.40937 24.0499 2.5251Z" fill="#A10E2F"/>
<path d="M8.78944 9.82136C8.77477 10.4526 8.2025 10.9958 7.57154 10.9958C6.96993 10.9811 6.44168 10.4233 6.45635 9.80668C6.47103 9.16073 7.02862 8.63222 7.67426 8.64691C8.29054 8.66159 8.80412 9.19009 8.78944 9.82136Z" fill="#A10E2F"/>
<path d="M47.2193 53.6873C47.2047 54.3186 46.6617 54.8471 46.0455 54.8324C45.4292 54.8177 44.8863 54.2598 44.9009 53.6432C44.9156 53.0267 45.4732 52.4835 46.0895 52.4982C46.7204 52.5128 47.234 53.056 47.2193 53.6873Z" fill="#A10E2F"/>
<path d="M42.4064 53.6432C42.4211 54.2452 41.8782 54.8177 41.2619 54.8324C40.6456 54.8471 40.088 54.3039 40.0733 53.6873C40.0587 53.0707 40.6016 52.5128 41.2179 52.4982C41.8195 52.4835 42.3918 53.0267 42.4064 53.6432Z" fill="#A10E2F"/>
</g>
<defs>
<clipPath id="clip0_994_42">
<rect width="60" height="60" fill="white"/>
</clipPath>
</defs>
</svg>
