<svg width="51" height="60" viewBox="0 0 51 60" fill="none" xmlns="http://www.w3.org/2000/svg">
<g clip-path="url(#clip0_993_32)">
<path d="M26.6736 -3.96371e-06C27.6285 0.140878 28.6147 0.203492 29.5539 0.406988C39.6974 2.58283 46.3658 8.64075 49.0582 18.659C51.3279 27.0963 49.8722 35.017 44.4717 41.9984C43.0472 43.8456 41.2158 45.4109 39.4939 47.0232C35.1422 51.0931 30.7435 55.1161 26.3762 59.1391C26.2823 59.2173 26.204 59.2956 26.1101 59.3739C25.2335 60.1878 24.7639 60.1878 23.903 59.3895C22.3376 57.9337 20.7879 56.4936 19.2225 55.0378C15.3405 51.4219 11.4114 47.8372 7.56066 44.1743C4.02296 40.7931 1.7845 36.6293 0.720064 31.8706C-0.782676 25.2178 -0.0782666 18.7999 3.27159 12.8202C7.13801 5.93269 13.0394 1.76885 20.8192 0.32872C21.6645 0.172185 22.5098 0.0939173 23.3551 -0.031311C24.4821 -3.96371e-06 25.5779 -3.96371e-06 26.6736 -3.96371e-06ZM25.0144 57.2137C25.1396 57.1041 25.2492 57.0258 25.3431 56.9319C30.4305 52.2515 35.5022 47.5554 40.574 42.875C41.9358 41.6227 43.0785 40.1983 44.049 38.6329C47.0076 33.8273 48.1033 28.5834 47.5241 22.995C47.0545 18.4242 45.5048 14.2447 42.5463 10.707C37.4902 4.6491 30.9627 1.87842 23.1046 2.47325C16.6554 2.95851 11.3488 5.85442 7.37282 10.9575C2.77068 16.8745 1.45578 23.6212 2.94287 30.9157C3.85077 35.4239 5.91704 39.3843 9.28255 42.562C14.0256 47.0545 18.8469 51.4845 23.6368 55.9301C24.0908 56.3527 24.5447 56.7597 25.0144 57.2137Z" fill="#A10E2F"/>
<path d="M19.4104 15.9197C19.4104 15.184 19.4104 14.5422 19.4104 13.9004C19.426 12.1315 20.647 10.9105 22.3845 10.9105C24.5291 10.8949 26.6736 10.8949 28.8338 10.9105C30.5244 10.9262 31.7454 12.1159 31.7923 13.8221C31.808 14.4952 31.7923 15.184 31.7923 15.9353C32.0584 15.9353 32.2619 15.9353 32.4811 15.9353C34.0621 15.9353 35.6431 15.9353 37.2241 15.9353C38.1007 15.9353 38.5233 16.358 38.539 17.2346C38.5546 19.3635 38.539 21.4923 38.539 23.6212C38.539 24.5604 38.2103 25.3588 37.6311 26.0945C37.4589 26.3136 37.3493 26.6423 37.3337 26.9241C37.318 29.1469 37.318 31.3697 37.318 33.5925C37.318 35.9719 35.784 37.5216 33.4046 37.5216C27.8007 37.5216 22.1967 37.5216 16.5927 37.5216C14.2604 37.5216 12.7107 35.9562 12.695 33.6238C12.695 31.3854 12.7107 29.1313 12.6793 26.8928C12.6793 26.611 12.5541 26.298 12.3819 26.0632C11.8654 25.3744 11.5053 24.623 11.5053 23.7621C11.4897 21.5549 11.4897 19.3478 11.5053 17.1407C11.5053 16.3423 11.9593 15.9197 12.7576 15.9197C14.73 15.904 16.7023 15.9197 18.6747 15.9197C18.9095 15.9197 19.1286 15.9197 19.4104 15.9197ZM21.821 25.077C22.0089 23.8404 22.3219 23.5899 23.5742 23.5899C24.5447 23.5899 25.5309 23.5899 26.5014 23.5899C27.7537 23.5899 28.0668 23.8404 28.2546 25.077C30.3365 25.077 32.4185 25.077 34.5004 25.077C35.6118 25.077 36.191 24.5135 36.191 23.3708C36.2066 21.8054 36.191 20.2401 36.191 18.6904C36.191 18.5651 36.1596 18.4242 36.144 18.2677C35.8935 18.2677 35.69 18.2677 35.4709 18.2677C33.9212 18.2677 32.3871 18.2677 30.8374 18.2677C29.8669 18.2677 29.4599 17.8451 29.4443 16.8745C29.4443 15.9353 29.4443 14.9961 29.4443 14.0569C29.4443 13.4151 29.2721 13.2586 28.646 13.2586C26.611 13.2586 24.5917 13.2586 22.5567 13.2586C21.8836 13.2586 21.7427 13.3995 21.7427 14.0882C21.7427 14.9805 21.7427 15.8884 21.7427 16.7806C21.7427 17.8607 21.3358 18.2677 20.2557 18.2677C18.3459 18.2677 16.4362 18.2677 14.5108 18.2677C14.3073 18.2677 14.1038 18.2677 13.869 18.2677C13.869 20.1461 13.8377 21.9463 13.8847 23.7308C13.9003 24.4978 14.5265 25.03 15.3248 25.077C15.7944 25.0926 16.264 25.077 16.7336 25.077C18.4242 25.077 20.1304 25.077 21.821 25.077ZM28.192 27.4407C28.192 28.1138 28.192 28.7243 28.192 29.3191C28.1763 30.2427 27.738 30.681 26.8301 30.6966C25.6561 30.6966 24.4821 30.6966 23.3081 30.6966C22.3063 30.6966 21.8836 30.274 21.868 29.2721C21.868 28.6617 21.868 28.0355 21.868 27.4407C19.5512 27.4407 17.3284 27.4407 15.0743 27.4407C15.0743 29.4913 15.0743 31.5263 15.0743 33.5456C15.0743 34.657 15.5596 35.1579 16.6867 35.1579C22.2593 35.1579 27.8163 35.1579 33.389 35.1579C34.5317 35.1579 35.0013 34.657 35.0013 33.4986C35.0013 31.6671 35.0013 29.82 35.0013 27.9886C35.0013 27.8007 34.9856 27.6129 34.97 27.425C32.6846 27.4407 30.4774 27.4407 28.192 27.4407ZM24.2317 28.3173C24.7952 28.3173 25.2961 28.3173 25.8127 28.3173C25.8127 27.5189 25.8127 26.7519 25.8127 25.9692C25.2648 25.9692 24.7482 25.9692 24.2317 25.9692C24.2317 26.7832 24.2317 27.5346 24.2317 28.3173Z" fill="#A10E2F"/>
<path d="M26.0475 5.41614C34.7665 5.43179 43.0785 12.5541 44.5813 22.1498C46.2562 32.7629 38.9773 42.875 28.3955 44.6595C17.485 46.5067 7.18498 39.1182 5.4944 28.239C4.85261 24.0595 5.4944 20.0835 7.37283 16.2953C7.41979 16.2014 7.46675 16.1232 7.51371 16.0292C7.96766 15.1839 8.5938 14.9022 9.25125 15.2466C9.89305 15.5909 10.0026 16.2484 9.61128 17.078C9.25125 17.8607 8.87557 18.6277 8.5938 19.4417C5.00914 29.4443 11.4271 40.4801 21.8993 42.3115C31.2758 43.9551 40.0574 38.0694 42.0924 28.7556C44.1743 19.3165 37.725 9.75217 28.1764 8.06159C24.7169 7.4511 21.3827 7.81113 18.1425 9.18864C18.0485 9.21995 17.9703 9.26691 17.8763 9.29821C17.1876 9.54867 16.5458 9.31387 16.2953 8.71903C16.0136 8.09289 16.2953 7.4511 16.9841 7.13803C19.5513 5.97966 22.2437 5.44744 26.0475 5.41614Z" fill="#A10E2F"/>
<path d="M11.0671 11.7245C11.0671 11.0827 11.568 10.5661 12.2098 10.5505C12.8672 10.5348 13.4151 11.0984 13.3995 11.7402C13.3838 12.3663 12.8516 12.8829 12.2254 12.8829C11.568 12.8829 11.0671 12.3663 11.0671 11.7245Z" fill="#A10E2F"/>
</g>
<defs>
<clipPath id="clip0_993_32">
<rect width="50.107" height="60" fill="white"/>
</clipPath>
</defs>
</svg>
