<svg width="47" height="60" viewBox="0 0 47 60" fill="none" xmlns="http://www.w3.org/2000/svg">
<g clip-path="url(#clip0_991_20)">
<path d="M14.7826 60C14.2789 59.7343 14.0427 59.2968 13.8538 58.7812C13.0037 56.3593 12.1221 53.9375 11.2562 51.5156C11.1933 51.3437 11.1145 51.1562 11.0358 50.9375C9.58747 51.3281 8.17061 51.7031 6.75374 52.0781C5.43133 52.4375 4.10892 52.7968 2.78651 53.1562C2.18828 53.3125 1.65302 53.2968 1.2437 52.7812C0.85013 52.2812 0.991817 51.7656 1.25945 51.25C3.19583 47.5937 5.11647 43.9218 7.05286 40.2656C7.24177 39.9062 7.22603 39.7187 6.92691 39.4218C1.82619 34.3125 -0.456535 28.1406 0.0944683 20.9843C0.787158 11.4687 7.96595 3.0781 17.3173 0.734346C18.1831 0.515596 18.8286 0.828096 19.0018 1.54685C19.1592 2.21872 18.7656 2.78122 17.8998 3.0156C12.8463 4.35935 8.81607 7.17185 5.87213 11.4843C-1.30666 22 2.89671 36.6718 14.5622 41.875C27.2196 47.5156 41.6559 39.6875 43.7497 26.0625C45.324 15.7187 38.7119 5.7031 28.5263 3.04685C28.4161 3.0156 28.3059 2.98435 28.1799 2.9531C27.5187 2.73435 27.1566 2.17185 27.2983 1.56247C27.4557 0.921846 28.054 0.499971 28.7467 0.718721C30.258 1.2031 31.8008 1.62497 33.2177 2.3281C40.5066 5.98435 44.9462 11.8437 46.0797 19.8906C47.1344 27.375 44.836 33.8906 39.5148 39.3125C39.1213 39.7031 39.0898 39.9687 39.3574 40.4375C41.2938 44.0625 43.1829 47.6875 45.0878 51.3281C45.5129 52.1406 45.3712 52.8437 44.6628 53.1093C44.3164 53.25 43.8442 53.2343 43.4821 53.1406C41.1679 52.5468 38.8536 51.9062 36.5552 51.2968C36.1458 51.1875 35.7208 51.0781 35.2642 50.9531C34.7132 52.4531 34.1937 53.9218 33.6585 55.3906C33.2491 56.5468 32.8713 57.7187 32.399 58.8593C32.2101 59.2968 31.8165 59.6406 31.5174 60.0312C31.2813 60.0312 31.0451 60.0312 30.809 60.0312C30.5099 59.6875 30.132 59.3906 29.9116 59C27.7548 54.9531 25.6295 50.8906 23.5042 46.8437C23.394 46.6406 23.2838 46.4531 23.1422 46.1875C22.9847 46.4687 22.8745 46.6562 22.7801 46.8437C20.6548 50.9062 18.5295 54.9531 16.3727 59C16.168 59.3906 15.7902 59.6875 15.4753 60.0312C15.2549 60 15.0188 60 14.7826 60ZM4.42378 50.2656C4.70716 50.2031 4.88033 50.1718 5.03776 50.125C7.08434 49.5781 9.11518 49.0156 11.1618 48.4687C12.1851 48.1875 12.6573 48.4375 13.0037 49.4375C13.6019 51.1093 14.2002 52.7812 14.7984 54.4531C14.9558 54.8906 15.129 55.3437 15.3337 55.9062C17.1126 52.5312 18.8286 49.2656 20.4659 46.1406C18.4822 45.5781 16.4986 45.0781 14.5622 44.4218C12.5944 43.75 10.8312 42.6406 9.09944 41.375C7.55663 44.3281 6.01382 47.25 4.42378 50.2656ZM30.9664 55.9062C31.785 53.625 32.5407 51.5 33.3121 49.3593C33.6427 48.4375 34.1307 48.1875 35.0911 48.4375C35.9569 48.6718 36.8385 48.9062 37.7044 49.1406C39.0583 49.5 40.4122 49.8593 41.892 50.2656C40.2862 47.2187 38.7592 44.2968 37.2006 41.3437C33.7529 43.9218 29.9746 45.4218 25.7397 45.9375C27.4715 49.2656 29.1717 52.5156 30.9664 55.9062Z" fill="#A10E2F"/>
<path d="M23.5042 0C23.5987 0.0625 23.6931 0.125 23.7876 0.1875C24.2441 0.515625 24.4488 0.953125 24.2599 1.5C24.0867 2.03125 23.6931 2.32812 23.1107 2.3125C22.5596 2.29688 22.1818 2 22.0244 1.48438C21.8512 0.9375 22.0401 0.5 22.5124 0.171875C22.6069 0.109375 22.7013 0.046875 22.7958 -0.015625C23.0319 0 23.2681 0 23.5042 0Z" fill="#A10E2F"/>
<path d="M40.4279 23.0625C40.3964 32.5469 32.6509 40.2344 23.1264 40.2188C13.6019 40.2032 5.8249 32.4688 5.87213 23.0313C5.90362 13.5157 13.6964 5.81253 23.2366 5.8594C32.7296 5.90628 40.4594 13.625 40.4279 23.0625ZM8.23358 23.0469C8.24932 31.2188 14.9401 37.875 23.1736 37.8594C31.4072 37.8438 38.098 31.1719 38.0822 23.0157C38.0507 14.8438 31.36 8.20315 23.1422 8.20315C14.9243 8.20315 8.21783 14.8907 8.23358 23.0469Z" fill="#A10E2F"/>
<path d="M21.9772 18.8125C21.5206 18.8125 21.1586 18.8438 20.7807 18.8125C20.088 18.75 19.6315 18.2344 19.663 17.6094C19.6787 16.9844 20.1667 16.5156 20.8594 16.5C21.6308 16.4844 22.3865 16.4844 23.1579 16.5C23.8821 16.5312 24.3229 16.9687 24.3229 17.6875C24.3386 21.25 24.3386 24.8281 24.3229 28.3906C24.3229 29.0937 23.8034 29.5937 23.1422 29.5937C22.4652 29.5937 21.9772 29.0781 21.9772 28.3125C21.9614 25.3906 21.9772 22.4688 21.9772 19.5313C21.9772 19.3281 21.9772 19.125 21.9772 18.8125Z" fill="#A10E2F"/>
</g>
<defs>
<clipPath id="clip0_991_20">
<rect width="46.3158" height="60" fill="white"/>
</clipPath>
</defs>
</svg>
