<svg width="59" height="59" viewBox="0 0 59 59" fill="none" xmlns="http://www.w3.org/2000/svg">
<g clip-path="url(#clip0_991_25)">
<path d="M0 31.3397C0 30.1083 0 28.8769 0 27.6455C0.0307292 27.4762 0.0768229 27.3068 0.107552 27.1375C0.338021 25.629 0.491667 24.0898 0.829687 22.5967C1.58255 19.2103 2.98073 16.0856 4.9013 13.2072C5.34687 12.5299 5.99219 12.3606 6.57604 12.73C7.14453 13.0994 7.25208 13.7767 6.83724 14.454C6.65286 14.7464 6.45312 15.0235 6.28411 15.3314C5.65417 16.4858 5.03958 17.6403 4.37891 18.8871C8.18932 18.8871 11.8461 18.8871 15.4875 18.8717C15.6258 18.8717 15.8409 18.687 15.9023 18.533C16.5784 16.7321 17.8383 15.6084 19.7435 15.2698C20.0969 15.2082 20.2198 15.0543 20.2812 14.7311C20.4195 13.9922 20.5732 13.2688 20.7576 12.5453C21.5104 9.49756 22.463 6.52678 24.107 3.83306C24.3221 3.47903 24.568 3.1404 24.8292 2.74019C24.5833 2.77097 24.4297 2.77097 24.276 2.80176C21.449 3.37129 18.7755 4.32563 16.2711 5.74175C15.4568 6.20353 14.6732 6.74227 13.8742 7.23484C13.0753 7.7274 12.138 7.34259 12.0305 6.46521C11.9536 5.89568 12.2763 5.54165 12.7219 5.23379C16.5323 2.61705 20.7115 0.95464 25.3055 0.308149C31.6357 -0.569232 37.6432 0.43129 43.2974 3.43286C44.4805 4.06395 45.6021 4.78741 46.7544 5.48008C48.9208 4.18709 51.1487 4.34102 52.8388 5.89568C54.575 7.51191 54.8055 9.66688 53.4995 12.3144C53.5456 12.3914 53.5917 12.4683 53.6531 12.5453C56.1883 16.1626 57.863 20.1493 58.5698 24.5208C58.7388 25.5983 58.8617 26.6757 59 27.7532C59 28.9385 59 30.1391 59 31.3243C58.9693 31.4783 58.9232 31.6168 58.9078 31.7707C58.7081 33.1407 58.5852 34.5106 58.3086 35.8652C55.9424 47.3019 46.1552 56.6606 34.6471 58.5231C33.5562 58.7078 32.45 58.831 31.3591 58.9849C30.1607 58.9849 28.9776 58.9849 27.7945 58.9849C27.6255 58.9541 27.4565 58.9079 27.2875 58.8925C22.3862 58.5231 17.869 57.03 13.7359 54.3979C13.2596 54.09 12.7833 53.7668 12.3224 53.4743C10.0945 54.7981 7.88203 54.6442 6.19193 53.0741C4.44036 51.4579 4.22526 49.3029 5.53125 46.6554C5.45443 46.5323 5.3776 46.4091 5.28542 46.286C2.81172 42.7149 1.18307 38.8051 0.476302 34.5106C0.261198 33.4639 0.138281 32.4018 0 31.3397ZM55.3893 37.7738C55.4354 37.6353 55.4969 37.4814 55.543 37.3428C57.0794 32.1401 57.0948 26.9374 55.5891 21.7347C55.4661 21.3037 55.2818 21.1806 54.8516 21.1806C50.0117 21.196 45.1719 21.196 40.332 21.196C40.1477 21.196 39.9633 21.196 39.7328 21.196C39.7482 21.5654 39.7789 21.8732 39.7789 22.1811C39.8865 24.9826 40.0247 27.784 40.0862 30.5855C40.1169 31.6937 40.0094 32.8174 39.994 33.9257C39.994 34.095 40.0708 34.3875 40.1937 34.4336C41.6995 35.0955 42.6521 36.2192 43.1284 37.7738C47.2154 37.7738 51.287 37.7738 55.3893 37.7738ZM19.2826 37.7584C19.2211 37.0504 19.1443 36.3885 19.1289 35.7266C19.0828 32.2171 19.0367 28.7076 19.0214 25.1981C19.0214 24.8286 18.9445 24.6285 18.5758 24.4746C17.2852 23.9359 16.4094 22.9661 15.9484 21.6577C15.8255 21.2883 15.6565 21.2114 15.3031 21.2114C11.5542 21.2268 7.82057 21.2114 4.07161 21.2114C3.91797 21.2114 3.76432 21.2114 3.57995 21.2114C1.87448 26.7681 1.85911 32.2787 3.56458 37.7738C8.85 37.7584 14.0432 37.7584 19.2826 37.7584ZM33.6945 37.7584C34.2938 35.8959 35.4922 34.6645 37.4128 34.1874C37.5357 34.1566 37.674 33.8949 37.674 33.7256C37.8891 30.1545 37.8122 26.5834 37.551 23.0277C37.5049 22.4274 37.4281 21.8117 37.3667 21.2421C37.2591 21.2114 37.2284 21.196 37.1977 21.196C33.3258 21.196 29.4385 21.196 25.5667 21.1806C25.2286 21.1806 25.1672 21.3653 25.075 21.6116C24.6294 22.8892 23.7844 23.8281 22.5706 24.3976C22.1865 24.5823 21.7562 24.7055 21.3414 24.8594C21.0802 29.1694 21.1878 33.4485 21.618 37.7584C25.6742 37.7584 29.669 37.7584 33.6945 37.7584ZM37.1208 18.8871C36.9979 18.102 36.8904 17.3786 36.7674 16.6551C36.1682 13.2688 35.3693 9.92855 33.8943 6.80384C33.2643 5.44929 32.5268 4.14092 31.3745 3.125C30.1146 2.01673 28.8854 1.95516 27.687 3.10961C26.9034 3.86385 26.212 4.78741 25.6589 5.74175C23.9841 8.69714 23.1852 11.9604 22.5091 15.2544C22.4784 15.4083 22.632 15.67 22.7857 15.7624C23.8919 16.3935 24.6755 17.2708 25.0596 18.4715C25.1826 18.8255 25.3516 18.8871 25.6742 18.8871C27.9021 18.8717 30.1299 18.8871 32.3578 18.8871C33.925 18.8871 35.4768 18.8871 37.1208 18.8871ZM21.8945 40.1289C22.0174 40.8832 22.125 41.6066 22.2479 42.3147C22.8471 45.7164 23.6615 49.072 25.1365 52.2121C25.7971 53.6283 26.5654 54.9828 27.8099 55.9833C28.9776 56.9223 30.0992 56.9839 31.1747 55.9679C32.0044 55.1829 32.7573 54.244 33.3411 53.2434C35.0312 50.3035 35.8302 47.0402 36.4909 43.7462C36.5216 43.6077 36.368 43.3922 36.245 43.269C36.076 43.1151 35.8456 43.0381 35.6612 42.8996C34.6625 42.2069 34.0479 41.2372 33.6945 40.1135C29.7458 40.1289 25.8279 40.1289 21.8945 40.1289ZM43.1437 40.1135C42.268 42.3609 41.3922 43.1305 39.149 43.7462C38.9799 43.7924 38.7956 44.054 38.7495 44.2541C38.4883 45.3008 38.2885 46.3475 38.012 47.3942C37.2284 50.3496 36.2297 53.2281 34.4935 55.7832C34.4013 55.9218 34.3245 56.0603 34.1708 56.2912C39.0568 55.3984 43.282 53.4128 46.9849 50.3035C50.2883 47.5174 52.8081 44.131 54.5289 40.1135C50.6878 40.1135 46.9234 40.1135 43.1437 40.1135ZM51.8094 13.7613C49.643 14.6541 47.7378 14.4386 46.1706 12.8685C44.5727 11.2831 44.3576 9.35902 45.1872 7.32719C42.7289 5.29536 36.0146 2.54008 34.2784 2.84794C37.5049 7.69662 38.5651 13.2688 39.4562 18.8717C44.4805 18.8717 49.4893 18.8717 54.6672 18.8717C53.6685 17.0861 52.7466 15.4237 51.8094 13.7613ZM24.7984 56.2912C21.4951 51.3348 20.4349 45.778 19.5437 40.1289C14.5349 40.1289 9.52604 40.1289 4.33281 40.1289C5.33151 41.8991 6.26875 43.5769 7.19062 45.2393C9.3263 44.3619 11.2008 44.562 12.768 46.0705C14.412 47.6559 14.6578 49.58 13.7974 51.7042C17.1161 54.0285 20.7268 55.5677 24.7984 56.2912ZM52.0859 9.46677C52.1013 8.08143 50.9797 6.92699 49.5969 6.91159C48.2141 6.8962 47.0464 8.00447 47.0156 9.38981C46.9849 10.8059 48.1219 11.9758 49.5354 11.9758C50.9182 11.9912 52.0706 10.8521 52.0859 9.46677ZM20.481 22.5813C21.8638 22.5967 23.0315 21.473 23.0469 20.0877C23.0622 18.7024 21.956 17.5325 20.5732 17.5017C19.1596 17.4709 17.9919 18.61 17.9766 20.0107C17.9766 21.4115 19.0982 22.5659 20.481 22.5813ZM11.9844 49.58C11.9997 48.1947 10.8781 47.0402 9.49531 47.0248C8.1125 47.0094 6.94479 48.1177 6.91406 49.503C6.88333 50.9192 8.02031 52.089 9.43385 52.089C10.8167 52.089 11.969 50.9653 11.9844 49.58ZM40.9312 38.9899C40.9466 37.5737 39.8557 36.4347 38.4729 36.4039C37.0594 36.3731 35.8917 37.5122 35.8763 38.9129C35.8609 40.2828 36.9979 41.4527 38.3807 41.4681C39.7789 41.4989 40.9159 40.3906 40.9312 38.9899Z" fill="#A10E2F"/>
<path d="M10.3711 9.69739C10.3711 10.3439 9.83332 10.8518 9.18801 10.8364C8.57343 10.8211 8.0664 10.2977 8.08176 9.682C8.08176 9.0509 8.65025 8.51216 9.26483 8.54294C9.87942 8.55834 10.3711 9.08169 10.3711 9.69739Z" fill="#A10E2F"/>
</g>
<defs>
<clipPath id="clip0_991_25">
<rect width="59" height="59" fill="white"/>
</clipPath>
</defs>
</svg>
