<svg width="49" height="60" viewBox="0 0 49 60" fill="none" xmlns="http://www.w3.org/2000/svg">
<g clip-path="url(#clip0_993_37)">
<path d="M29.815 0C30.2448 0.125228 30.6905 0.234803 31.1044 0.391338C32.346 0.876598 33.3329 1.67493 33.9697 2.83329C34.7337 4.19515 35.8639 4.83694 37.4558 4.82129C40.7031 4.80564 43.2501 7.3102 43.2342 10.5035C43.2342 12.0532 43.855 13.1333 45.208 13.916C48.1052 15.5909 48.9966 18.8625 47.3411 21.7115C46.5611 23.042 46.577 24.2943 47.357 25.6248C48.9966 28.4425 48.1052 31.7454 45.2558 33.389C43.8868 34.1717 43.2342 35.2674 43.2501 36.8328C43.266 39.7443 41.1489 42.0611 38.2199 42.4524C37.9652 42.4837 37.7264 42.515 37.424 42.562C37.5513 42.7968 37.6468 42.969 37.7582 43.1568C39.5093 46.131 41.2444 49.1051 42.9954 52.0793C43.0909 52.2515 43.2023 52.408 43.2819 52.5802C43.5207 53.0342 43.5366 53.4881 43.2023 53.8951C42.868 54.3178 42.4064 54.443 41.8652 54.3021C39.7958 53.7542 37.7264 53.2064 35.657 52.6741C35.5615 52.6428 35.466 52.6272 35.3068 52.5959C35.1795 53.0029 35.068 53.4099 34.9566 53.8169C34.5109 55.4761 34.0493 57.1354 33.6195 58.7947C33.4603 59.4052 33.2056 59.9061 32.4893 59.9844C31.8048 60.0626 31.4546 59.64 31.1521 59.1078C28.9395 55.3196 26.7109 51.5314 24.4823 47.7589C24.3709 47.5711 24.2595 47.3989 24.1003 47.1328C23.957 47.3676 23.8456 47.5398 23.7341 47.712C21.5056 51.5158 19.2611 55.3196 17.0325 59.1234C16.7778 59.5617 16.4913 59.9374 15.9182 60C15.3133 60.0626 14.8358 59.7026 14.6448 59.0138C14.0876 57.0415 13.5623 55.0691 13.0211 53.0811C12.9733 52.9403 12.9256 52.7837 12.8619 52.5959C11.3815 52.9872 9.93291 53.3629 8.48434 53.7542C7.76801 53.9421 7.0676 54.1143 6.35128 54.3178C5.79413 54.4743 5.31658 54.3804 4.96638 53.9264C4.61617 53.4725 4.66393 52.9872 4.95046 52.502C6.74924 49.4495 8.54801 46.3814 10.3468 43.329C10.4901 43.0942 10.6174 42.8594 10.7448 42.6402C10.0125 42.468 9.29618 42.3898 8.64352 42.155C6.41495 41.3723 4.91862 39.2747 4.93454 36.9267C4.95046 35.2831 4.26597 34.1717 2.8174 33.3577C0.143109 31.8236 -0.796075 28.4268 0.748007 25.797C1.6076 24.3412 1.6076 23.0264 0.748007 21.5706C-0.811994 18.9095 0.143109 15.497 2.86515 13.9786C4.28189 13.1803 4.95046 12.0689 4.93454 10.4566C4.91862 7.32586 7.46556 4.82129 10.6492 4.83694C12.2888 4.83694 13.435 4.19515 14.2309 2.78633C15.0586 1.36186 16.348 0.500913 17.9876 0.125228C18.115 0.0939212 18.2423 0.0469606 18.3697 0C18.9268 0 19.4839 0 20.0411 0C20.9643 0.391338 21.8717 0.782677 22.795 1.15836C23.6705 1.51839 24.5619 1.50274 25.4374 1.14271C26.3448 0.767023 27.2362 0.391338 28.1435 0.0156535C28.7007 0 29.2578 0 29.815 0ZM2.27617 28.4581C2.3876 29.7417 3.00842 30.7592 4.21821 31.448C6.27168 32.6063 7.30638 34.3439 7.30638 36.6762C7.29046 38.7582 8.73903 40.1826 10.8562 40.1826C13.2439 40.167 14.995 41.1845 16.1888 43.2038C17.2394 45.0039 19.1656 45.5361 20.9803 44.503C23.0815 43.3133 25.1509 43.3133 27.2362 44.5187C28.9872 45.5205 30.9611 45.0196 31.948 43.2977C33.1578 41.2001 34.9566 40.1826 37.408 40.1983C39.4137 40.2139 40.8782 38.7738 40.8623 36.7858C40.8464 34.3752 41.897 32.6063 44.0301 31.4166C45.7493 30.4461 46.2905 28.5051 45.2876 26.8302C44.0301 24.7326 44.0301 22.6663 45.2876 20.5687C46.2905 18.8782 45.7493 16.9371 44.0301 15.9666C41.897 14.7769 40.8464 13.0237 40.8623 10.5974C40.8782 8.6251 39.4137 7.16932 37.408 7.18497C34.9566 7.20063 33.1578 6.18315 31.9321 4.08557C30.9293 2.36368 28.9554 1.84712 27.2203 2.84894C25.135 4.05427 23.0656 4.06992 20.9643 2.8646C19.1815 1.84712 17.2235 2.34803 16.2048 4.10123C14.995 6.16749 13.2121 7.18497 10.7766 7.16932C8.73903 7.15367 7.27454 8.59379 7.29046 10.5974C7.30638 12.9924 6.25577 14.7456 4.15454 15.9196C2.40352 16.9058 1.86229 18.8469 2.88107 20.5531C4.1227 22.635 4.1227 24.67 2.89699 26.7675C2.61046 27.2841 2.48311 27.8946 2.27617 28.4581ZM16.2366 55.7892C18.0035 52.7837 19.6909 49.9191 21.3941 47.0076C21.2509 46.9919 21.1872 46.9763 21.1395 46.9919C18.2741 48.0251 15.2497 46.6319 13.9762 44.143C13.8011 43.7986 13.4827 43.5325 13.1803 43.1725C11.5725 45.9275 10.0125 48.5729 8.40475 51.3123C8.72311 51.234 8.93005 51.2027 9.13699 51.1558C10.3945 50.827 11.668 50.4827 12.9256 50.1539C14.2627 49.8096 14.6766 50.0444 15.0268 51.3593C15.4088 52.7837 15.8068 54.2082 16.2366 55.7892ZM39.7958 51.3279C38.1562 48.5416 36.5962 45.8962 34.9725 43.1255C34.6064 43.6421 34.2562 44.0647 33.9697 44.5343C32.6644 46.6788 30.2288 47.7433 27.7456 47.2111C27.4431 47.1484 27.1566 47.0545 26.7427 46.945C28.4937 49.9348 30.1811 52.7994 31.9003 55.7266C31.9799 55.5231 32.0276 55.3979 32.0754 55.2726C32.4574 53.8951 32.8235 52.5176 33.2056 51.1558C33.508 50.0913 34.0015 49.8252 35.0999 50.107C36.6121 50.4983 38.1244 50.9053 39.7958 51.3279Z" fill="#A10E2F"/>
<path d="M24.1004 6.27704C33.1739 6.33965 40.7828 13.1489 41.6424 22.0401C42.5657 31.5888 35.4661 40.0104 25.7241 40.9496C16.1094 41.8575 7.44976 34.8291 6.54241 25.3744C6.23996 22.1654 6.78119 19.1129 8.182 16.217C8.51629 15.5126 9.08935 15.2309 9.71017 15.4344C10.4265 15.6692 10.6653 16.3736 10.3787 17.1562C9.90119 18.5494 9.31221 19.9426 9.05751 21.3827C7.62486 29.2877 13.4191 37.1928 21.4898 38.4607C29.7673 39.76 37.2967 34.7039 39.0477 26.6892C40.8306 18.5338 35.1 10.2687 26.711 8.92249C23.5592 8.40592 20.5506 8.79726 17.6375 10.0965C17.3032 10.2374 16.9053 10.347 16.5551 10.3C16.0298 10.2374 15.7273 9.8617 15.6477 9.34513C15.5681 8.7816 15.8387 8.35896 16.3481 8.1085C17.8922 7.37279 19.5 6.82491 21.2032 6.59011C22.1583 6.43357 23.1294 6.37096 24.1004 6.27704Z" fill="#A10E2F"/>
<path d="M29.1943 20.3026C29.6878 20.3026 30.1176 20.3026 30.5633 20.3026C32.967 20.3496 34.5747 21.9463 34.5906 24.3099C34.5906 25.891 34.6065 27.472 34.5906 29.053C34.5747 31.3071 32.951 32.935 30.6588 32.9507C28.6053 32.9664 26.5678 33.0133 24.5143 32.935C23.4637 32.8881 22.429 32.5594 21.3784 32.3872C21.1874 32.3559 20.9486 32.4185 20.7576 32.4811C20.2641 32.6376 19.7706 32.9194 19.2612 32.9507C18.131 33.029 17.0008 32.982 15.8706 32.9664C14.5016 32.9507 13.6102 32.0584 13.6102 30.6966C13.5943 27.5502 13.5943 24.4039 13.6102 21.2575C13.6102 19.927 14.5494 19.019 15.9025 19.0034C17.0167 18.9877 18.131 18.9877 19.2453 19.0034C19.5 19.0034 19.8025 19.0034 19.9935 19.1286C20.5347 19.473 20.8849 19.2225 21.2988 18.8938C22.3972 18.0329 23.2727 16.9841 24.0367 15.8257C24.8008 14.6517 25.9629 14.1978 27.3318 14.4326C28.6849 14.6674 29.5923 15.5127 29.8629 16.8432C29.9743 17.4224 29.8629 18.0798 29.7514 18.6747C29.64 19.2069 29.4012 19.7235 29.1943 20.3026ZM21.5535 25.7031C21.5535 26.9554 21.5694 28.2077 21.5376 29.4443C21.5376 29.8043 21.649 30.0235 21.9833 30.0861C22.811 30.2739 23.6388 30.5557 24.4665 30.587C26.4882 30.6653 28.5098 30.6183 30.5474 30.6027C31.6298 30.6027 32.187 30.0391 32.187 28.959C32.187 27.4876 32.187 26.0318 32.187 24.5604C32.187 23.1203 31.6776 22.6194 30.229 22.6194C29.0988 22.6194 27.9686 22.6194 26.8384 22.6037C26.2812 22.6037 25.8992 22.3063 25.74 21.7741C25.5967 21.2732 25.7082 20.7722 26.1698 20.5374C26.6633 20.287 26.8065 19.8956 26.9498 19.4573C27.0931 18.9877 27.2682 18.5338 27.4274 18.0798C27.6502 17.4067 27.5388 16.9684 27.0772 16.7649C26.6314 16.5614 26.2335 16.7336 25.8674 17.3128C24.8486 18.9095 23.5592 20.24 21.9514 21.2732C21.649 21.4767 21.5376 21.6958 21.5535 22.0402C21.5694 23.2768 21.5535 24.4821 21.5535 25.7031ZM19.1339 30.587C19.1339 27.5033 19.1339 24.4665 19.1339 21.3827C18.0833 21.3827 17.0486 21.3827 15.998 21.3827C15.998 24.4665 15.998 27.5033 15.998 30.587C17.0645 30.587 18.0833 30.587 19.1339 30.587Z" fill="#A10E2F"/>
<path d="M12.4323 13.3838C11.7797 13.3681 11.2703 12.8515 11.2703 12.2098C11.2703 11.5836 11.8115 11.0514 12.4482 11.0514C13.1168 11.0514 13.6421 11.5836 13.6262 12.2567C13.6103 12.9142 13.085 13.3994 12.4323 13.3838Z" fill="#A10E2F"/>
</g>
<defs>
<clipPath id="clip0_993_37">
<rect width="48.169" height="60" fill="white"/>
</clipPath>
</defs>
</svg>
