<svg width="30" height="30" viewBox="0 0 30 30" fill="none" xmlns="http://www.w3.org/2000/svg">
<g clip-path="url(#clip0_94_205)">
<path d="M24.3656 0H5.63438C4.1414 0.00440226 2.71083 0.599436 1.65513 1.65513C0.599436 2.71083 0.00440226 4.1414 0 5.63438L0 24.3656C0.00437766 25.8586 0.599403 27.2892 1.65511 28.3449C2.71081 29.4006 4.14139 29.9956 5.63438 30H24.3656C25.8586 29.9956 27.2892 29.4006 28.3449 28.3449C29.4006 27.2892 29.9956 25.8586 30 24.3656V5.63438C29.9956 4.1414 29.4006 2.71083 28.3449 1.65513C27.2892 0.599436 25.8586 0.00440226 24.3656 0V0ZM19.4123 9.16978C19.4123 9.16978 18.0304 9.15778 17.2132 9.15778C16.3961 9.15778 16.2638 10.1673 16.2638 10.1673V12.5226H19.4123L19.0759 15.4067H16.2634V24.4195H12.8265V15.4067H10.4236V12.5226H12.827V10.1673C12.827 6.51403 15.9275 6.41784 17.1892 6.39394C18.4508 6.37003 19.4123 6.39394 19.4123 6.39394V9.16978Z" fill="#9E9E9E"/>
</g>
<defs>
<clipPath id="clip0_94_205">
<rect width="30" height="30" fill="white"/>
</clipPath>
</defs>
</svg>
