<svg width="30" height="30" viewBox="0 0 30 30" fill="none" xmlns="http://www.w3.org/2000/svg">
<path d="M29.7537 5.96855C29.6159 4.38866 28.8806 2.92028 27.6973 1.86142C26.3736 0.720366 24.6743 0.106959 22.9252 0.138813C18.4513 0.0496196 13.9756 -0.0138602 9.50105 0.0150676C7.8454 -0.0561865 6.18856 0.125574 4.58799 0.554047C3.36747 0.892895 2.28463 1.60601 1.49264 2.59253C0.700648 3.57905 0.239593 4.78903 0.174693 6.05132C-0.0757926 9.26209 -0.0411602 21.8155 0.178518 23.8836C0.245928 24.7542 0.495433 25.601 0.910945 26.3694C1.32646 27.1378 1.89876 27.8109 2.59095 28.3451C4.00778 29.3597 5.71807 29.8848 7.46153 29.8403C12.9566 30.1004 18.4621 30.0427 23.9505 29.6676C25.1682 29.5611 26.3318 29.1165 27.3093 28.3841C28.164 27.7133 28.8465 26.8493 29.3006 25.8635C29.7546 24.8777 29.9672 23.7982 29.9207 22.7143C30.0225 18.6047 30.0028 14.4912 29.9877 10.3798C29.9856 8.90637 29.9075 7.434 29.7537 5.96855ZM14.9219 24.3865C13.0582 24.3679 11.2417 23.799 9.70168 22.7515C8.16167 21.704 6.96717 20.2249 6.26889 18.5008C5.57061 16.7768 5.39986 14.8849 5.77817 13.0641C6.15648 11.2433 7.0669 9.5751 8.39455 8.26999C9.72221 6.96487 11.4076 6.08134 13.2381 5.73089C15.0685 5.38044 16.962 5.57877 18.6796 6.30086C20.3972 7.02294 21.8619 8.23643 22.8889 9.78818C23.9159 11.3399 24.4592 13.1604 24.4502 15.0199C24.4235 17.5201 23.4065 19.9083 21.6213 21.6631C19.836 23.4179 17.4281 24.397 14.9219 24.3865ZM24.7857 7.36954C24.496 7.37853 24.2073 7.32951 23.9369 7.22538C23.6664 7.12124 23.4196 6.9641 23.2111 6.76323C23.0025 6.56236 22.8364 6.32183 22.7226 6.05585C22.6087 5.78988 22.5494 5.50384 22.5482 5.21462C22.5509 4.61945 22.7905 4.04971 23.2142 3.63074C23.6379 3.21177 24.2111 2.9779 24.8076 2.98056C25.4042 2.98322 25.9753 3.22221 26.3952 3.64495C26.8152 4.06768 27.0496 4.63954 27.0469 5.23471C27.0442 5.52466 26.9829 5.81107 26.8667 6.07685C26.7505 6.34263 26.5818 6.58231 26.3707 6.78158C26.1595 6.98085 25.9103 7.13562 25.6379 7.23664C25.3655 7.33766 25.076 7.38286 24.7857 7.36954Z" fill="#9E9E9E"/>
<path d="M14.9927 8.75C13.7598 8.75146 12.5548 9.11756 11.5294 9.80222C10.504 10.4869 9.704 11.4595 9.23011 12.5978C8.75621 13.736 8.62956 14.989 8.8661 16.199C9.10264 17.4091 9.6918 18.5221 10.5594 19.3981C11.4271 20.2741 12.5344 20.8739 13.7422 21.1221C14.9499 21.3703 16.2041 21.2557 17.3468 20.7927C18.4896 20.3298 19.4699 19.5392 20.1644 18.5205C20.8589 17.5017 21.2366 16.3003 21.2499 15.0674C21.2548 14.2415 21.0968 13.4227 20.7849 12.658C20.4729 11.8932 20.0132 11.1975 19.4319 10.6107C18.8507 10.0238 18.1594 9.55742 17.3977 9.23814C16.6359 8.91886 15.8187 8.75298 14.9927 8.75Z" fill="#9E9E9E"/>
</svg>
