<svg width="30" height="30" viewBox="0 0 30 30" fill="none" xmlns="http://www.w3.org/2000/svg">
<g clip-path="url(#clip0_94_207)">
<path d="M24.3656 0H5.63438C4.1414 0.00440226 2.71083 0.599436 1.65513 1.65513C0.599436 2.71083 0.00440226 4.1414 0 5.63438L0 24.3656C0.00442686 25.8586 0.599468 27.2891 1.65516 28.3448C2.71085 29.4005 4.14141 29.9956 5.63438 30H24.3656C25.8586 29.9956 27.2891 29.4005 28.3448 28.3448C29.4005 27.2891 29.9956 25.8586 30 24.3656V5.63438C29.9956 4.1414 29.4006 2.71083 28.3449 1.65513C27.2892 0.599436 25.8586 0.00440226 24.3656 0V0ZM10.5963 23.3671H6.97922V12.3608H10.5963V23.3671ZM8.78775 11.0186C8.39159 11.0186 8.00433 10.9012 7.67492 10.6811C7.34552 10.461 7.08878 10.1482 6.93717 9.7822C6.78556 9.4162 6.74589 9.01347 6.82317 8.62492C6.90045 8.23637 7.09122 7.87947 7.37134 7.59934C7.65147 7.31922 8.00837 7.12845 8.39692 7.05117C8.78547 6.97389 9.1882 7.01356 9.5542 7.16517C9.9202 7.31678 10.233 7.57352 10.4531 7.90293C10.6732 8.23233 10.7906 8.61959 10.7906 9.01575C10.7906 9.54695 10.5796 10.0564 10.204 10.432C9.82838 10.8076 9.31895 11.0186 8.78775 11.0186ZM23.2169 17.553V23.3675H19.5999V17.5526C19.5999 15.5302 18.6665 15.1704 17.9275 15.1704C17.6934 15.1601 17.4596 15.1979 17.2406 15.2815C17.0216 15.3651 16.8221 15.4927 16.6545 15.6564C16.4868 15.8202 16.3545 16.0166 16.2657 16.2336C16.177 16.4505 16.1337 16.6833 16.1385 16.9177V23.3671H12.5214V12.3608H16.1385V13.6125C16.4943 13.1399 16.9557 12.7571 17.4858 12.4946C18.0159 12.2321 18.6 12.0973 19.1916 12.1008C19.6871 12.0646 20.1849 12.1269 20.6562 12.2843C21.1275 12.4417 21.5629 12.691 21.9372 13.0177C22.3115 13.3444 22.6174 13.7421 22.837 14.1878C23.0567 14.6335 23.1858 15.1183 23.2169 15.6142V17.553Z" fill="#9E9E9E"/>
</g>
<defs>
<clipPath id="clip0_94_207">
<rect width="30" height="30" fill="white"/>
</clipPath>
</defs>
</svg>
