<svg width="30" height="30" viewBox="0 0 30 30" fill="none" xmlns="http://www.w3.org/2000/svg">
<g clip-path="url(#clip0_94_209)">
<path d="M24.3656 0H5.63438C4.1414 0.00440226 2.71083 0.599436 1.65513 1.65513C0.599436 2.71083 0.00440226 4.1414 0 5.63438L0 24.3656C0.00440226 25.8586 0.599436 27.2892 1.65513 28.3449C2.71083 29.4006 4.1414 29.9956 5.63438 30H24.3656C25.8586 29.9956 27.2892 29.4006 28.3449 28.3449C29.4006 27.2892 29.9956 25.8586 30 24.3656V5.63438C29.9956 4.1414 29.4006 2.71083 28.3449 1.65513C27.2892 0.599436 25.8586 0.00440226 24.3656 0V0ZM22.4984 13.5237C22.4984 13.6608 22.4669 13.6818 22.2845 13.6731C21.1977 13.6345 20.1357 13.338 19.186 12.8081C19.0102 12.7086 18.8446 12.5911 18.6727 12.4844C18.6421 12.4657 18.5844 12.4396 18.573 12.4508C18.5442 12.4817 18.5275 12.5219 18.5261 12.5641C18.5261 12.7136 18.5406 12.8631 18.5407 13.0126C18.5419 14.6515 18.5387 16.2906 18.5425 17.9296C18.5742 18.8579 18.3715 19.7792 17.9531 20.6085C17.5972 21.3035 17.0869 21.9078 16.4612 22.375C15.8356 22.8423 15.1112 23.16 14.3438 23.3039C13.4921 23.5154 12.5977 23.4796 11.7656 23.2008C10.4377 22.7839 9.32467 21.8655 8.66334 20.6408C8.33857 20.0316 8.13738 19.3643 8.07132 18.6771C8.00526 17.99 8.07564 17.2966 8.27842 16.6367C8.4812 15.9769 8.81237 15.3636 9.25291 14.8321C9.69345 14.3007 10.2347 13.8615 10.8455 13.5398C11.764 13.0467 12.8115 12.8466 13.8472 12.9665C13.9672 12.9791 14.0135 13.029 14.013 13.1516C14.0094 14.0153 14.0115 14.8791 14.0108 15.7428C14.0108 15.8851 13.9981 15.8928 13.8554 15.8577C13.3873 15.7446 12.8959 15.776 12.446 15.948C11.9961 16.12 11.609 16.4243 11.3357 16.8209C11.0625 17.2174 10.9159 17.6875 10.9153 18.1691C10.9148 18.6507 11.0604 19.1212 11.3328 19.5183C11.6052 19.9155 11.9916 20.2207 12.4411 20.3936C12.8906 20.5666 13.3819 20.5991 13.8503 20.487C14.3187 20.3749 14.742 20.1234 15.0645 19.7656C15.3869 19.4079 15.5932 18.9607 15.6563 18.4833C15.6707 18.3608 15.6769 18.2374 15.675 18.1141C15.6761 16.3602 15.6764 14.6063 15.6758 12.8525V12.7203H15.6852V12.4167C15.6852 10.9008 15.6852 9.38488 15.6852 7.869C15.6852 7.60031 15.6772 7.33162 15.6776 7.06275C15.6776 6.87984 15.7053 6.855 15.8828 6.85519C16.6715 6.85641 17.4603 6.85425 18.249 6.86119C18.5707 6.86409 18.5303 6.85678 18.5483 7.13616C18.6182 8.02798 18.9851 8.87061 19.5902 9.52941C20.1954 10.1882 21.0039 10.6251 21.8866 10.7704C22.0432 10.7936 22.2012 10.8095 22.3591 10.8218C22.4573 10.8296 22.5002 10.8736 22.4997 10.9718C22.4989 11.8227 22.5 12.6732 22.4984 13.5237Z" fill="#9E9E9E"/>
</g>
<defs>
<clipPath id="clip0_94_209">
<rect width="30" height="30" fill="white"/>
</clipPath>
</defs>
</svg>
