<svg width="30" height="30" viewBox="0 0 30 30" fill="none" xmlns="http://www.w3.org/2000/svg">
<g clip-path="url(#clip0_94_211)">
<path d="M24.3656 0H5.63438C4.1414 0.00440226 2.71083 0.599436 1.65513 1.65513C0.599436 2.71083 0.00440226 4.1414 0 5.63438L0 24.3656C0.00442686 25.8586 0.599468 27.2891 1.65516 28.3448C2.71085 29.4005 4.14141 29.9956 5.63438 30H24.3656C25.8586 29.9956 27.2892 29.4006 28.3449 28.3449C29.4006 27.2892 29.9956 25.8586 30 24.3656V5.63438C29.9956 4.1414 29.4006 2.71083 28.3449 1.65513C27.2892 0.599436 25.8586 0.00440226 24.3656 0V0ZM22.0057 11.3219C21.9847 11.7157 21.8517 12.6481 21.873 12.713C21.725 14.2442 21.2623 15.7283 20.5139 17.0724C19.7655 18.4164 18.7475 19.5914 17.5238 20.5236C12.2831 24.1079 6.33225 20.7802 6.33225 20.7802C8.10002 20.8653 9.84143 20.326 11.2517 19.2567C10.5193 19.2089 9.8169 18.9482 9.23072 18.5065C8.64454 18.0649 8.20015 17.4617 7.95216 16.7709C8.46225 16.7483 8.91928 16.728 9.3765 16.7079C8.6013 16.4809 7.92103 16.0078 7.43846 15.36C6.9559 14.7123 6.69726 13.9251 6.70162 13.1173C7.17537 13.2472 7.65012 13.3773 8.12587 13.5076C8.14106 13.4788 8.15672 13.4502 8.172 13.4219C7.91436 13.2015 7.67385 12.9617 7.45256 12.7048C7.10737 12.2672 6.87001 11.7544 6.75967 11.208C6.64933 10.6617 6.66911 10.097 6.81741 9.55969C6.9183 9.23625 7.074 8.93256 7.27772 8.66184C7.35197 8.76694 7.75031 9.27787 7.88081 9.40641C8.60696 10.1783 9.46853 10.8104 10.4228 11.2715C11.6484 11.9035 12.985 12.2917 14.3586 12.4143C14.5113 12.4305 14.5968 12.4356 14.5968 12.4356C14.5968 12.2137 14.6062 12.01 14.5954 11.8074C14.5561 11.2795 14.6383 10.7496 14.8355 10.2584C15.0327 9.76715 15.3398 9.32758 15.7332 8.97338C16.1472 8.57203 16.6532 8.27826 17.207 8.11775C17.7607 7.95724 18.3454 7.93489 18.9098 8.05266C19.593 8.16287 20.2251 8.48215 20.7192 8.96653C20.9679 9.20944 21.2229 9.06028 21.4458 8.98688C22.0169 8.79834 22.5718 8.55994 23.1587 8.33119C22.9232 9.08199 22.4412 9.73138 21.7909 10.1743C22.4074 10.1165 23.0161 9.99485 23.6075 9.81122C23.1631 10.402 22.6215 10.9129 22.0057 11.3219Z" fill="#9E9E9E"/>
</g>
<defs>
<clipPath id="clip0_94_211">
<rect width="30" height="30" fill="white"/>
</clipPath>
</defs>
</svg>
