<svg width="30" height="30" viewBox="0 0 30 30" fill="none" xmlns="http://www.w3.org/2000/svg">
<path d="M24.3656 0H5.63438C4.1414 0.00440226 2.71083 0.599436 1.65513 1.65513C0.599436 2.71083 0.00440226 4.1414 0 5.63438L0 24.3656C0.00440226 25.8586 0.599436 27.2892 1.65513 28.3449C2.71083 29.4006 4.1414 29.9956 5.63438 30H24.3656C25.8586 29.9956 27.2892 29.4006 28.3449 28.3449C29.4006 27.2892 29.9956 25.8586 30 24.3656V5.63438C29.9956 4.1414 29.4006 2.71083 28.3449 1.65513C27.2892 0.599436 25.8586 0.00440226 24.3656 0V0ZM22.6007 16.4507C22.6294 16.4907 22.6336 16.542 22.6609 16.5851C22.7573 16.72 22.8642 16.8471 22.9806 16.9653C23.1535 17.1622 23.3582 17.3263 23.5439 17.5103C23.6148 17.5833 23.6915 17.6507 23.7731 17.7115C23.8072 17.7388 23.838 17.77 23.8647 17.8045C23.9241 17.8724 23.9889 17.9355 24.0583 17.9931C24.1248 18.0495 24.1879 18.1099 24.2471 18.174C24.4411 18.3829 24.6569 18.5709 24.8378 18.7919C24.897 18.8643 24.9699 18.9232 25.03 18.994C25.1633 19.1512 25.2925 19.3118 25.4232 19.4712C25.6158 19.7117 25.7898 19.9666 25.9434 20.2337C26.0234 20.3655 26.0835 20.5084 26.1216 20.6578C26.1459 20.7452 26.1493 20.8372 26.1316 20.9262C26.1139 21.0152 26.0756 21.0988 26.0197 21.1702C25.9277 21.2913 25.7984 21.3787 25.6518 21.419C25.5768 21.4402 25.5018 21.4658 25.429 21.4929C25.2652 21.5446 25.0934 21.5662 24.9219 21.5569C24.2201 21.5572 23.5182 21.5572 22.8163 21.5569C22.5341 21.5569 22.2517 21.5555 21.9697 21.5618C21.789 21.5706 21.6084 21.5424 21.4389 21.4791C21.2708 21.4247 21.1086 21.3533 20.9548 21.2661C20.8389 21.1893 20.7171 21.1202 20.6072 21.035C20.3891 20.8653 20.1863 20.6769 20.0011 20.4718C19.753 20.1983 19.4997 19.9295 19.2645 19.6446C19.1961 19.5617 19.119 19.4861 19.0456 19.4074C18.9014 19.2438 18.7467 19.0898 18.5825 18.9464C18.4248 18.8033 18.2395 18.694 18.0381 18.6251C17.9613 18.6029 17.8804 18.5986 17.8018 18.6127C17.7231 18.6267 17.6487 18.6587 17.5844 18.7062C17.5014 18.7654 17.4245 18.8327 17.355 18.9072C17.3209 18.9432 17.2938 18.9853 17.2751 19.0312C17.2294 19.1309 17.178 19.2277 17.1357 19.3296C17.0862 19.449 17.0679 19.5755 17.0232 19.6947C17.0024 19.7764 16.9884 19.8596 16.9813 19.9435C16.9336 20.2188 16.9109 20.4979 16.9132 20.7772C16.9122 20.9496 16.8575 21.1174 16.7567 21.2572C16.7063 21.3328 16.6323 21.3898 16.5463 21.4193C16.48 21.4411 16.4159 21.4694 16.3551 21.5036C16.2767 21.5434 16.1889 21.5611 16.1012 21.5548C15.9555 21.5491 15.8106 21.5543 15.6649 21.5558C15.3825 21.5589 15.0999 21.5584 14.8175 21.5558C14.6632 21.5545 14.5081 21.5549 14.3551 21.5397C14.1408 21.5216 13.9282 21.4878 13.7189 21.4385C13.7024 21.4329 13.6854 21.4288 13.6682 21.426C13.4866 21.4028 13.3071 21.3659 13.1312 21.3155C13.1001 21.3082 13.0696 21.2981 13.0403 21.2854C12.9933 21.2624 12.9425 21.2479 12.8903 21.2427C12.8669 21.242 12.8439 21.2365 12.8228 21.2263C12.7275 21.1747 12.6191 21.16 12.5203 21.1164C12.4359 21.0789 12.3449 21.0589 12.2595 21.0207C12.098 20.9483 11.9365 20.8759 11.775 20.8034C11.6582 20.7507 11.5442 20.6926 11.4329 20.6302C11.2213 20.521 11.0175 20.3974 10.823 20.2602C10.786 20.2321 10.7437 20.2114 10.7049 20.1852C10.4827 20.0367 10.2689 19.8759 10.0646 19.7034C9.843 19.5196 9.63129 19.3241 9.43041 19.1178C9.21131 18.8891 8.99362 18.6593 8.79338 18.4127C8.63212 18.2141 8.46619 18.0189 8.31281 17.8147C8.04094 17.4517 7.76681 17.0898 7.521 16.7085C7.39838 16.5182 7.26253 16.3369 7.14919 16.1401C7.04344 15.9567 6.92119 15.783 6.81019 15.6024C6.72506 15.4639 6.65391 15.3163 6.5625 15.1823C6.46875 15.0446 6.40059 14.8937 6.31406 14.753C6.17109 14.5202 6.04678 14.2773 5.91609 14.0379C5.79778 13.8214 5.67497 13.6073 5.55834 13.3898C5.49272 13.2673 5.43853 13.1388 5.37347 13.016C5.33962 12.9521 5.29791 12.8921 5.26856 12.8258C5.22656 12.731 5.17069 12.6434 5.12887 12.5479C5.09902 12.4695 5.06182 12.3942 5.01778 12.3229C4.97954 12.2648 4.94737 12.203 4.92178 12.1384C4.86656 12.0041 4.79841 11.8759 4.73634 11.7456C4.67428 11.6152 4.60941 11.4846 4.54969 11.3531C4.48369 11.2082 4.41734 11.0633 4.35066 10.9183C4.28756 10.7812 4.23178 10.6407 4.16316 10.5058C4.08209 10.3482 4.02286 10.1803 3.98709 10.0068C3.97147 9.93404 3.97865 9.85826 4.00768 9.78975C4.0367 9.72125 4.08615 9.66337 4.14928 9.624C4.28022 9.54292 4.43008 9.49748 4.584 9.49219C4.74668 9.4809 4.90982 9.47777 5.07281 9.48281C5.45428 9.48197 5.83584 9.48281 6.21741 9.48281V9.48478C6.72991 9.48478 7.24241 9.48478 7.75491 9.48478C7.83623 9.48082 7.9175 9.49358 7.99369 9.52228C8.08586 9.54769 8.17554 9.58139 8.26163 9.62297C8.38822 9.70087 8.49258 9.81011 8.56462 9.94013C8.62284 10.0474 8.66156 10.1624 8.71556 10.2705C8.75981 10.3591 8.78878 10.4536 8.83444 10.5415C8.86369 10.5978 8.87944 10.661 8.90306 10.7202C8.97628 10.9034 9.07969 11.0727 9.15619 11.2537C9.23766 11.4461 9.33553 11.6306 9.42234 11.8203C9.47936 11.9472 9.54524 12.0699 9.6195 12.1875C9.67894 12.2801 9.72422 12.3817 9.77597 12.4792C9.86203 12.6408 9.96216 12.7941 10.0572 12.9504C10.1552 13.1118 10.2506 13.2748 10.3522 13.434C10.4662 13.613 10.5837 13.7897 10.7032 13.9651C10.7916 14.0947 10.884 14.2214 10.977 14.3477C11.1028 14.5189 11.2424 14.6794 11.3945 14.8277C11.5245 14.9571 11.6776 15.0611 11.8459 15.1341C11.9286 15.1665 12.019 15.1737 12.1058 15.1547C12.1925 15.1358 12.2717 15.0915 12.3334 15.0276C12.4042 14.9362 12.4633 14.8364 12.5092 14.7304C12.5657 14.5812 12.6075 14.4269 12.6343 14.2696C12.6476 14.1953 12.657 14.1203 12.6624 14.0451C12.7238 13.5837 12.7475 13.1182 12.7333 12.653C12.7326 12.3823 12.7273 12.1115 12.716 11.8411C12.711 11.7221 12.7088 11.6027 12.7002 11.484C12.6935 11.3918 12.6664 11.3018 12.6609 11.2086C12.6498 11.0549 12.6224 10.9029 12.579 10.7551C12.5241 10.5307 12.4065 10.3266 12.2398 10.1666C12.1654 10.1013 12.0836 10.0449 11.9961 9.99862C11.881 9.94368 11.7623 9.89669 11.6408 9.858C11.611 9.84594 11.5792 9.83958 11.5471 9.83925C11.5267 9.83952 11.5063 9.83842 11.4861 9.83597C11.3689 9.82069 11.3471 9.78159 11.3912 9.67172C11.4401 9.56872 11.5143 9.47977 11.6068 9.41316C11.7058 9.32278 11.8213 9.25228 11.9469 9.2055C12.0823 9.14577 12.2244 9.10246 12.37 9.0765C12.4245 9.06785 12.4782 9.05481 12.5306 9.0375C12.6937 9.01036 12.8582 8.99195 13.0233 8.98237C13.3182 8.95219 13.6145 8.93767 13.911 8.93887C14.1757 8.93231 14.4409 8.9295 14.7058 8.94141C14.7378 8.94281 14.7698 8.94422 14.8018 8.94394C15.005 8.94519 15.2081 8.95705 15.4101 8.97947C15.5636 8.98904 15.7164 9.00833 15.8675 9.03722C15.9668 9.05972 16.0688 9.07022 16.1658 9.09572C16.2718 9.1252 16.3755 9.16259 16.476 9.20756C16.624 9.2795 16.7421 9.40105 16.8097 9.55106C16.8655 9.65332 16.9016 9.76522 16.9159 9.88088C16.938 10.0686 16.9502 10.2574 16.9523 10.4464C16.9523 10.8423 16.9294 11.2374 16.9177 11.6329C16.9132 11.7842 16.9148 11.9357 16.9125 12.0871C16.9068 12.4683 16.9025 12.8496 16.8926 13.2308C16.8906 13.3117 16.8823 13.3928 16.8793 13.4746C16.8744 13.748 16.8872 14.0214 16.9177 14.2931C16.9296 14.3793 16.9488 14.4643 16.9752 14.5472C17.0045 14.6347 17.0384 14.7206 17.0767 14.8045C17.0958 14.8502 17.1231 14.892 17.1573 14.9279C17.2575 15.0378 17.3587 15.1529 17.5288 15.1342C17.6158 15.1269 17.6998 15.0989 17.7737 15.0524C17.9636 14.923 18.1372 14.7711 18.2907 14.6001C18.4585 14.4219 18.6018 14.2242 18.7507 14.0306C18.9209 13.8089 19.0627 13.5686 19.221 13.3393C19.3632 13.1331 19.4835 12.9139 19.6157 12.7018C19.6848 12.5911 19.7505 12.4783 19.8137 12.3643C19.8757 12.253 19.9324 12.1382 19.9941 12.0263C20.07 11.8888 20.1384 11.7475 20.2003 11.6036C20.2508 11.4861 20.3214 11.3781 20.3678 11.2603C20.4498 11.0524 20.5585 10.8572 20.6386 10.648C20.6755 10.5517 20.7136 10.4538 20.7569 10.3587C20.7974 10.2701 20.8357 10.179 20.8687 10.0862C20.9218 9.9041 21.0208 9.73871 21.1562 9.60581C21.1825 9.58368 21.2118 9.56541 21.2433 9.55153C21.3894 9.49336 21.5472 9.47024 21.7039 9.48403C22.825 9.48497 23.9462 9.48547 25.0675 9.48553C25.137 9.48553 25.2061 9.48009 25.2758 9.48103C25.4291 9.49392 25.5811 9.51938 25.7302 9.55716C25.8488 9.5784 25.9565 9.64012 26.0347 9.73181C26.0972 9.79763 26.1335 9.88396 26.1368 9.97462C26.1398 10.0966 26.1223 10.2183 26.0849 10.3344C26.0515 10.4294 26.0317 10.529 25.9941 10.6243C25.9365 10.7706 25.8622 10.9083 25.7972 11.0504C25.7522 11.148 25.7041 11.2442 25.6549 11.3397C25.6378 11.3729 25.6116 11.4014 25.5922 11.4335C25.5097 11.5702 25.4328 11.7103 25.3451 11.8439C25.269 11.9605 25.1901 12.0754 25.1138 12.1921C25.0282 12.3233 24.9363 12.4509 24.8457 12.5791C24.688 12.8022 24.5262 13.0223 24.3602 13.2395C24.1956 13.4542 24.0376 13.6739 23.8735 13.889C23.6781 14.1452 23.4773 14.3974 23.2829 14.6541C23.1687 14.8046 23.0626 14.9611 22.9512 15.1134C22.8811 15.2096 22.8106 15.3053 22.7479 15.4067C22.6308 15.5809 22.5507 15.7773 22.5124 15.9837C22.4955 16.0635 22.4946 16.1459 22.5097 16.2261C22.5249 16.3062 22.5558 16.3826 22.6007 16.4507Z" fill="#9E9E9E"/>
</svg>
