<svg width="30" height="30" viewBox="0 0 30 30" fill="none" xmlns="http://www.w3.org/2000/svg">
<g clip-path="url(#clip0_94_215)">
<path d="M13.3528 17.3145L18.4115 14.7486L13.3528 12.1826V17.3145Z" fill="#9E9E9E"/>
<path d="M24.3656 0H5.63438C4.14141 0.00442686 2.71085 0.599468 1.65516 1.65516C0.599468 2.71085 0.00442686 4.14141 0 5.63438L0 24.3656C0.00440226 25.8586 0.599436 27.2892 1.65513 28.3449C2.71083 29.4006 4.1414 29.9956 5.63438 30H24.3656C25.8586 29.9956 27.2892 29.4006 28.3449 28.3449C29.4006 27.2892 29.9956 25.8586 30 24.3656V5.63438C29.9956 4.1414 29.4006 2.71083 28.3449 1.65513C27.2892 0.599436 25.8586 0.00440226 24.3656 0V0ZM25.4162 18.2977C25.4162 18.786 25.32 19.2696 25.1332 19.7207C24.9463 20.1719 24.6724 20.5818 24.3271 20.9272C23.9818 21.2725 23.5718 21.5464 23.1207 21.7333C22.6695 21.9202 22.1859 22.0163 21.6976 22.0163H8.78747C8.29913 22.0163 7.81557 21.9202 7.3644 21.7333C6.91324 21.5464 6.5033 21.2725 6.15799 20.9272C5.81269 20.5818 5.53878 20.1719 5.35191 19.7207C5.16504 19.2696 5.06886 18.786 5.06887 18.2977V11.7023C5.06886 11.214 5.16504 10.7304 5.35191 10.2793C5.53878 9.8281 5.81269 9.41815 6.15799 9.07284C6.5033 8.72753 6.91324 8.45361 7.3644 8.26673C7.81557 8.07984 8.29913 7.98366 8.78747 7.98366H21.6975C22.1858 7.98366 22.6694 8.07984 23.1206 8.26673C23.5717 8.45361 23.9817 8.72753 24.327 9.07284C24.6723 9.41815 24.9462 9.8281 25.1331 10.2793C25.3199 10.7304 25.4161 11.214 25.4161 11.7023L25.4162 18.2977Z" fill="#9E9E9E"/>
</g>
<defs>
<clipPath id="clip0_94_215">
<rect width="30" height="30" fill="white"/>
</clipPath>
</defs>
</svg>
